<?xml version="1.0" encoding="UTF-8" standalone="no"?>
<svg
   xmlns:dc="http://purl.org/dc/elements/1.1/"
   xmlns:cc="http://creativecommons.org/ns#"
   xmlns:rdf="http://www.w3.org/1999/02/22-rdf-syntax-ns#"
   xmlns:svg="http://www.w3.org/2000/svg"
   xmlns="http://www.w3.org/2000/svg"
   xmlns:sodipodi="http://sodipodi.sourceforge.net/DTD/sodipodi-0.dtd"
   xmlns:inkscape="http://www.inkscape.org/namespaces/inkscape"
   width="840mm"
   height="210mm"
   viewBox="0 0 840 210"
   version="1.1"
   id="svg296"
   inkscape:version="1.0.1 (0767f8302a, 2020-10-17)"
   sodipodi:docname="MaxLogo.svg"
   inkscape:export-filename="/home/ajay/Documents/Inkscape/MaxLogo-Exported.png"
   inkscape:export-xdpi="96"
   inkscape:export-ydpi="96">
  <defs
     id="defs290" />
  <sodipodi:namedview
     id="base"
     pagecolor="#ffffff"
     bordercolor="#666666"
     borderopacity="1.0"
     inkscape:pageopacity="0.0"
     inkscape:pageshadow="2"
     inkscape:zoom="0.35"
     inkscape:cx="1795.8653"
     inkscape:cy="396.85039"
     inkscape:document-units="mm"
     inkscape:current-layer="layer1"
     inkscape:document-rotation="0"
     showgrid="false"
     inkscape:window-width="1920"
     inkscape:window-height="1016"
     inkscape:window-x="0"
     inkscape:window-y="27"
     inkscape:window-maximized="1" />
  <metadata
     id="metadata293">
    <rdf:RDF>
      <cc:Work
         rdf:about="">
        <dc:format>image/svg+xml</dc:format>
        <dc:type
           rdf:resource="http://purl.org/dc/dcmitype/StillImage" />
        <dc:title />
      </cc:Work>
    </rdf:RDF>
  </metadata>
  <g
     inkscape:label="Layer 1"
     inkscape:groupmode="layer"
     id="layer1">
    <g
       aria-label="AJ"
       id="text300"
       style="font-style:normal;font-variant:normal;font-weight:bold;font-stretch:normal;font-size:210px;line-height:1.25;font-family:monospace;-inkscape-font-specification:'monospace Bold';letter-spacing:0px;word-spacing:0px;fill:#a9180e;;fill-opacity:1;stroke:none;stroke-width:0.264583" />
    <g
       aria-label="bïtûś"
       id="text304"
       style="font-style:normal;font-variant:normal;font-weight:normal;font-stretch:normal;font-size:180px;line-height:1.25;font-family:FreeMono;-inkscape-font-specification:FreeMono;letter-spacing:0px;word-spacing:0px;fill:#a9180e;;fill-opacity:1;stroke:none;stroke-width:0.264583"
       transform="translate(0,3.1750001)">
      <path
         id="path351"
         style="font-style:normal;font-variant:normal;font-weight:normal;font-stretch:normal;font-size:180px;font-family:FreeMono;-inkscape-font-specification:FreeMono;fill:#a9180e;;stroke-width:0.264583"
         d="m 787.25389,60.39946 -20.52,18 q -2.16,1.62 -3.42,1.62 -1.44,0 -2.52,-1.08 -1.08,-1.08 -1.08,-2.7 0,-1.44 2.16,-3.42 l 20.52,-18 q 2.16,-1.62 3.42,-1.62 1.44,0 2.52,1.08 1.08,1.08 1.08,2.7 0,1.44 -2.16,3.42 z m 6.12,86.94 q 0,-6.66 -6.12,-10.26 -6.12,-3.6 -14.76,-4.86 -8.64,-1.26 -17.28,-2.7 -8.64,-1.44 -14.76,-5.94 -6.12,-4.5 -6.12,-12.42 0,-8.82 8.64,-14.58 8.82,-5.76 22.14,-5.76 15.3,0 24.66,8.28 v -0.72 q 0,-5.04 3.78,-5.04 3.6,0 3.6,5.04 v 12.42 q 0,4.86 -3.6,4.86 -3.24,0 -3.78,-4.14 -0.72,-6.12 -7.2,-9.72 -6.48,-3.6 -16.74,-3.6 -10.08,0 -16.74,3.96 -6.66,3.78 -6.66,9.54 0,5.4 6.12,8.28 6.12,2.88 14.76,4.14 8.64,1.08 17.28,2.88 8.64,1.62 14.76,6.84 6.12,5.04 6.12,13.68 0,10.26 -10.08,17.1 -9.9,6.66 -25.2,6.66 -17.28,0 -28.26,-9.72 v 1.98 q 0,4.86 -3.6,4.86 -3.78,0 -3.78,-4.86 v -14.94 q 0,-4.86 3.78,-4.86 3.6,0 3.6,3.96 v 1.26 q 0,6.12 8.1,10.62 8.1,4.32 19.62,4.32 11.88,0 19.8,-4.68 7.92,-4.68 7.92,-11.88 z m -136.36969,-91.62 23.76,19.44 q 2.34,1.98 2.34,3.78 0,1.44 -1.08,2.52 -1.08,1.08 -2.52,1.08 -1.26,0 -3.24,-1.44 l -19.26,-15.84 -19.26,15.84 q -1.98,1.44 -3.24,1.44 -1.44,0 -2.52,-1.08 -1.08,-1.08 -1.08,-2.52 0,-1.44 2.34,-3.6 z m 26.1,112.68 v -11.88 q -15.12,14.76 -32.76,14.76 -10.8,0 -17.46,-6.48 -6.48,-6.48 -6.48,-17.1 v -46.98 h -9.72 q -4.86,0 -4.86,-3.78 0,-3.6 4.86,-3.6 h 17.1 v 54.36 q 0,6.84 4.68,11.52 4.86,4.68 11.7,4.68 18,0 32.94,-16.2 v -46.98 h -13.32 q -5.04,0 -5.04,-3.78 0,-3.6 5.04,-3.6 h 20.7 v 67.68 h 6.12 q 4.86,0 4.86,3.6 0,3.78 -4.86,3.78 z m -153.46969,-75.06 h 39.6 q 4.86,0 4.86,3.6 0,3.78 -4.86,3.78 h -39.6 v 48.06 q 0,6.84 5.4,10.98 5.4,4.14 14.76,4.14 7.56,0 16.02,-1.98 8.64,-2.16 13.86,-5.22 1.8,-1.08 2.88,-1.08 1.26,0 2.34,1.08 1.08,1.08 1.08,2.52 0,3.96 -12.24,8.1 -12.06,3.96 -23.58,3.96 -12.78,0 -20.34,-5.94 -7.56,-6.12 -7.56,-16.2 v -48.42 h -13.32 q -5.04,0 -5.04,-3.78 0,-3.6 5.04,-3.6 h 13.32 v -21.42 q 0,-4.86 3.78,-4.86 3.6,0 3.6,4.86 z m -109.72969,-31.32 q 3.78,0 6.3,2.7 2.7,2.7 2.7,6.48 0,3.6 -2.7,6.3 -2.7,2.52 -6.3,2.52 -3.6,0 -6.3,-2.7 -2.7,-2.7 -2.7,-6.3 0,-3.6 2.7,-6.3 2.7,-2.7 6.3,-2.7 z m 39.78,0 q 3.78,0 6.3,2.7 2.7,2.7 2.7,6.48 0,3.6 -2.7,6.3 -2.7,2.52 -6.3,2.52 -3.6,0 -6.3,-2.7 -2.7,-2.7 -2.7,-6.3 0,-3.6 2.7,-6.3 2.7,-2.7 6.3,-2.7 z m -13.86,31.32 v 67.68 h 28.8 q 5.04,0 5.04,3.6 0,3.78 -5.04,3.78 h -64.98 q -4.86,0 -4.86,-3.78 0,-3.6 4.86,-3.6 h 28.8 v -60.3 h -21.24 q -4.86,0 -4.86,-3.78 0,-3.6 4.86,-3.6 z m -139.60968,-33.66 v 49.68 q 13.14,-18.54 32.4,-18.54 16.38,0 27.72,11.52 11.34,11.52 11.34,28.26 0,16.92 -11.52,28.8 -11.34,11.88 -27.54,11.88 -19.8,0 -32.4,-18.72 v 15.84 h -17.1 q -4.86,0 -4.86,-3.78 0,-3.6 4.86,-3.6 h 9.72 v -93.96 h -9.72 q -4.86,0 -4.86,-3.78 0,-3.6 4.86,-3.6 z m 32.04,38.52 q -13.32,0 -22.68,9.54 -9.36,9.54 -9.36,23.22 0,13.68 9.36,23.4 9.36,9.54 22.68,9.54 13.14,0 22.5,-9.54 9.54,-9.54 9.54,-22.86 0,-14.04 -9.36,-23.58 -9.18,-9.72 -22.68,-9.72 z m -170.07899,72.30347 v -35.06836 q 8.81836,9.02344 18.76465,13.74023 10.04882,4.7168 20.20019,4.7168 11.89453,0 17.43164,-5.94726 5.53711,-5.94727 5.53711,-18.96973 V 51.660156 h -37.0166 V 25 h 67.26562 v 103.97461 q 0,27.99316 -11.79199,40.09277 -11.68945,11.99707 -38.65722,11.99707 -9.74122,0 -20.40528,-2.66601 -10.56152,-2.66602 -21.32812,-7.89551 z M 93.835327,52.685547 79.582397,115.33691 H 108.1908 Z M 75.378296,25 H 112.3949 l 41.32324,153.09082 h -30.24902 l -9.4336,-37.83691 H 73.532593 l -9.228516,37.83691 H 34.055054 Z" />
    </g>
  </g>
</svg>
