<?xml version="1.0" encoding="UTF-8" standalone="no"?>
<svg
   xmlns:dc="http://purl.org/dc/elements/1.1/"
   xmlns:cc="http://creativecommons.org/ns#"
   xmlns:rdf="http://www.w3.org/1999/02/22-rdf-syntax-ns#"
   xmlns:svg="http://www.w3.org/2000/svg"
   xmlns="http://www.w3.org/2000/svg"
   xmlns:sodipodi="http://sodipodi.sourceforge.net/DTD/sodipodi-0.dtd"
   xmlns:inkscape="http://www.inkscape.org/namespaces/inkscape"
   width="210mm"
   height="210mm"
   viewBox="0 0 210 210"
   version="1.1"
   id="svg8"
   inkscape:version="1.0.1 (0767f8302a, 2020-10-17)"
   sodipodi:docname="MinLogo.svg"
   inkscape:export-filename="/home/ajay/Documents/Inkscape/MinLogo-Exported.png"
   inkscape:export-xdpi="96"
   inkscape:export-ydpi="96">
  <defs
     id="defs2" />
  <sodipodi:namedview
     id="base"
     pagecolor="#ffffff"
     bordercolor="#666666"
     borderopacity="1.0"
     inkscape:pageopacity="0.0"
     inkscape:pageshadow="2"
     inkscape:zoom="1"
     inkscape:cx="237"
     inkscape:cy="387.53403"
     inkscape:document-units="mm"
     inkscape:current-layer="layer1"
     inkscape:document-rotation="0"
     showgrid="false"
     inkscape:snap-intersection-paths="true"
     inkscape:window-width="1920"
     inkscape:window-height="1016"
     inkscape:window-x="0"
     inkscape:window-y="27"
     inkscape:window-maximized="1" />
  <metadata
     id="metadata5">
    <rdf:RDF>
      <cc:Work
         rdf:about="">
        <dc:format>image/svg+xml</dc:format>
        <dc:type
           rdf:resource="http://purl.org/dc/dcmitype/StillImage" />
        <dc:title></dc:title>
      </cc:Work>
    </rdf:RDF>
  </metadata>
  <g
     inkscape:label="Back"
     inkscape:groupmode="layer"
     id="layer1">
    <path
       id="path10"
       style="fill:#0088aa;stroke-width:1.03351"
       d="M 396.84961 37.794922 A 359.05512 359.05512 0 0 0 37.794922 396.84961 A 359.05512 359.05512 0 0 0 396.84961 755.90625 A 359.05512 359.05512 0 0 0 755.90625 396.84961 A 359.05512 359.05512 0 0 0 396.84961 37.794922 z M 209.71875 249.125 L 275.52734 249.125 L 348.99023 521.28711 L 295.21484 521.28711 L 278.44336 454.02148 L 206.4375 454.02148 L 190.03125 521.28711 L 136.25586 521.28711 L 209.71875 249.125 z M 418.99023 249.125 L 538.57422 249.125 L 538.57422 433.96875 C 538.57422 467.1458 531.58505 490.90581 517.60938 505.24609 C 503.75521 519.46483 480.8485 526.57422 448.88672 526.57422 C 437.3416 526.57422 425.24826 524.99369 412.60938 521.83398 C 400.09203 518.67425 387.45377 513.99476 374.69336 507.79688 L 374.69336 445.45312 C 385.14473 456.14758 396.26454 464.29059 408.05273 469.88086 C 419.96248 475.47113 431.93362 478.26563 443.96484 478.26562 C 458.06205 478.26562 468.39064 474.74198 474.95312 467.69336 C 481.51562 460.64472 484.79687 449.40273 484.79688 433.96875 L 484.79688 296.52148 L 418.99023 296.52148 L 418.99023 249.125 z M 242.53125 298.34375 L 217.19336 409.72461 L 268.05273 409.72461 L 242.53125 298.34375 z M 552.59766 392.80859 L 596.26953 392.80859 L 596.26953 453.76953 C 604.3065 444.98213 613.55634 440.58984 624.01953 440.58984 C 636.60569 440.58984 646.84126 445.68901 654.72656 455.88867 C 662.7635 466.08833 666.7832 479.3485 666.7832 495.66797 C 666.7832 513.24277 662.00646 527.601 652.45312 538.74219 C 642.8998 549.72643 630.541 555.2168 615.37695 555.2168 C 614.91774 555.2168 614.45997 555.19742 614.00195 555.17969 A 24.45344 53.2523 0 0 1 613.79102 555.18164 A 24.45344 53.2523 0 0 1 612.11328 555.05469 C 602.95039 554.20829 594.02936 549.79844 585.35156 541.80078 L 567.38281 554.98242 L 564.65234 554.98242 L 564.65234 412.10938 C 564.65234 407.40187 563.89528 404.26254 562.37891 402.69336 C 561.01412 400.96725 557.75344 399.55544 552.59766 398.45703 L 552.59766 392.80859 z "
       transform="scale(0.26458333)"
       inkscape:export-xdpi="96"
       inkscape:export-ydpi="96" />
    <g
       aria-label="AJ"
       id="text44"
       style="font-style:normal;font-variant:normal;font-weight:bold;font-stretch:normal;font-size:98.7777px;line-height:1.25;font-family:monospace;-inkscape-font-specification:'monospace Bold';letter-spacing:0px;word-spacing:0px;fill:#ffffff;fill-opacity:1;stroke:none;stroke-width:0.264583"
       transform="translate(0.9242709,1.2140791)" />
  </g>
</svg>
